<?xml version="1.0" standalone="no"?>
<!DOCTYPE svg PUBLIC "-//W3C//DTD SVG 20010904//EN"
 "http://www.w3.org/TR/2001/REC-SVG-20010904/DTD/svg10.dtd">
<svg version="1.0" xmlns="http://www.w3.org/2000/svg"
 width="900.000000pt" height="900.000000pt" viewBox="0 0 900.000000 900.000000"
 preserveAspectRatio="xMidYMid meet">
<metadata>
Created by potrace 1.10, written by Peter Selinger 2001-2011
</metadata>
<g transform="translate(0.000000,900.000000) scale(0.100000,-0.100000)"
fill="#000000" stroke="none">
<path d="M2206 8531 c-3 -5 -29 -21 -58 -36 -82 -42 -216 -146 -293 -227 -69
-71 -80 -85 -148 -178 -39 -54 -119 -216 -141 -285 -8 -27 -22 -72 -31 -100
-20 -64 -31 -325 -17 -420 29 -198 117 -362 273 -510 63 -60 170 -145 199
-158 8 -4 29 -16 45 -26 30 -20 90 -50 155 -78 19 -9 48 -22 63 -29 16 -8 38
-14 48 -14 11 0 29 -5 40 -11 31 -16 160 -49 196 -49 35 0 52 -15 27 -24 -9
-3 -79 -6 -157 -7 -78 0 -164 -5 -192 -10 -27 -5 -77 -13 -110 -18 -76 -12
-142 -29 -178 -47 -16 -8 -35 -14 -42 -14 -7 0 -26 -7 -42 -14 -15 -8 -62 -31
-104 -50 -93 -44 -114 -64 -99 -97 51 -120 235 -292 380 -356 167 -73 313 -92
485 -62 102 18 148 30 198 55 16 8 34 14 42 14 7 0 18 6 24 14 6 8 23 16 37
19 24 4 26 3 19 -27 -4 -17 -9 -100 -12 -184 -4 -127 -2 -161 13 -205 35 -106
76 -180 179 -317 94 -127 157 -225 179 -280 10 -25 24 -58 31 -75 12 -28 22
-60 61 -202 8 -32 20 -71 26 -88 5 -16 13 -43 18 -60 11 -39 29 -91 46 -133 8
-18 14 -43 14 -55 0 -13 5 -28 11 -34 6 -6 14 -25 18 -43 12 -58 26 -31 32 62
4 51 13 113 20 138 27 88 105 227 191 340 97 128 138 172 138 147 0 -18 -7
-36 -64 -170 -9 -21 -16 -45 -16 -55 0 -9 -7 -26 -15 -36 -8 -11 -15 -28 -15
-38 0 -9 -6 -32 -14 -50 -35 -83 -72 -231 -87 -345 -25 -191 35 -341 172 -429
43 -29 46 -29 184 -28 99 0 161 6 211 18 60 15 104 17 280 14 143 -3 218 -9
239 -18 20 -9 81 -13 191 -14 141 -1 164 1 181 17 11 9 24 17 30 17 15 0 98
94 118 133 22 43 54 164 55 205 0 41 -26 188 -46 262 -39 140 -47 167 -60 198
-8 18 -14 41 -14 50 0 10 -7 27 -15 38 -8 10 -15 26 -15 36 0 9 -13 46 -30 83
-30 67 -38 105 -21 105 23 0 193 -227 243 -325 42 -81 75 -170 82 -220 13 -89
22 -120 35 -120 13 0 22 25 51 134 4 18 13 38 19 44 6 6 11 21 11 34 0 12 6
37 14 55 16 39 35 92 46 133 5 17 16 53 24 80 43 140 58 192 63 215 5 21 100
174 133 212 17 20 134 182 147 203 21 34 49 98 67 153 16 45 18 80 15 237 -3
143 -1 185 8 185 7 0 39 -13 70 -28 114 -56 170 -70 332 -79 144 -8 246 9 366
62 17 7 37 16 45 19 8 3 29 15 45 26 17 11 36 23 44 27 44 21 179 157 224 226
52 79 53 102 2 133 -22 13 -47 27 -55 30 -8 3 -42 18 -75 33 -102 47 -195 76
-290 91 -33 6 -85 14 -115 19 -30 5 -121 10 -202 10 -80 1 -153 4 -162 7 -24
9 -9 24 25 24 37 0 151 27 197 46 18 8 39 14 47 14 14 0 39 10 150 60 33 16
67 31 75 34 8 3 29 15 45 26 17 11 37 23 45 27 8 3 17 9 20 12 3 3 25 20 50
36 44 30 207 186 245 236 82 106 134 221 162 359 33 162 24 348 -23 485 -8 23
-14 46 -14 53 0 12 -53 134 -71 162 -5 8 -13 24 -18 35 -5 11 -21 37 -35 58
-14 21 -26 41 -26 44 0 9 -68 90 -140 167 -86 92 -196 174 -324 245 -41 23
-61 30 -69 22 -7 -7 -6 -16 4 -28 13 -17 22 -34 61 -123 30 -68 67 -173 78
-220 4 -19 13 -48 18 -65 22 -64 42 -183 42 -251 0 -112 -54 -287 -106 -345
-8 -8 -14 -18 -14 -22 0 -3 -19 -27 -42 -52 -79 -87 -245 -179 -369 -204 -19
-4 -41 -11 -47 -15 -22 -13 -240 -38 -380 -43 -138 -5 -144 -4 -177 19 -19 12
-35 26 -35 31 0 4 -5 7 -11 7 -6 0 -28 13 -48 28 -52 40 -140 81 -221 102
-128 33 -543 36 -647 5 -26 -8 -64 -15 -83 -15 -19 0 -57 -7 -84 -15 -62 -19
-124 -19 -201 0 -33 8 -74 14 -92 15 -17 0 -60 8 -95 17 -52 14 -106 17 -313
17 -180 -1 -258 -5 -280 -14 -16 -7 -46 -16 -65 -20 -68 -16 -215 -87 -252
-123 -57 -55 -65 -57 -195 -57 -114 0 -263 16 -373 41 -25 5 -62 14 -83 18
-21 5 -44 14 -50 20 -6 6 -19 11 -29 11 -37 0 -172 79 -246 145 -33 29 -104
124 -123 165 -54 116 -54 116 -53 300 0 141 3 182 17 214 9 21 17 47 17 58 0
21 24 101 46 153 7 17 27 66 45 110 18 44 39 90 47 102 13 22 10 43 -8 43 -5
0 -11 -4 -14 -9z m3278 -2467 c9 -24 7 -115 -4 -155 -23 -84 -142 -178 -250
-198 -83 -16 -183 3 -187 35 -6 43 122 148 353 289 27 16 51 33 52 37 6 14 30
9 36 -8z m-2093 -17 c19 -13 41 -26 49 -30 8 -4 29 -16 45 -27 17 -11 37 -23
45 -27 26 -12 169 -123 206 -160 50 -50 44 -72 -26 -90 -99 -26 -225 12 -305
92 -59 60 -85 118 -85 191 0 83 12 91 71 51z m578 -1762 c58 -36 118 -128 134
-205 3 -14 9 -35 12 -47 13 -40 -45 -31 -163 25 -67 32 -142 126 -142 177 0 8
12 27 26 44 33 39 78 41 133 6z m992 2 c37 -32 41 -53 20 -100 -20 -45 -86
-117 -106 -117 -7 0 -18 -7 -25 -15 -7 -8 -22 -15 -34 -15 -12 0 -32 -7 -44
-16 -28 -20 -89 -15 -83 6 2 8 7 31 11 50 16 73 78 176 119 196 12 7 28 17 34
23 19 19 80 12 108 -12z"/>
<path d="M6630 5134 c-134 -61 -195 -114 -250 -215 -35 -64 -35 -64 -35 -200
l0 -136 -36 -34 c-59 -55 -219 -201 -284 -259 -33 -30 -65 -59 -71 -64 -17
-17 -79 -73 -204 -186 -63 -57 -120 -109 -126 -114 -6 -6 -60 -56 -120 -111
-95 -87 -196 -182 -285 -265 -51 -48 -105 -96 -219 -195 -63 -55 -117 -102
-120 -105 -3 -3 -30 -25 -60 -50 -30 -25 -57 -47 -60 -50 -33 -35 -141 -120
-152 -120 -8 0 -23 9 -32 19 -10 11 -44 29 -77 41 -96 36 -177 15 -256 -66
-32 -34 -44 -56 -53 -100 -29 -137 23 -246 139 -296 99 -43 197 -16 277 76 27
31 83 82 123 113 64 48 205 163 291 237 13 11 45 37 71 56 25 19 68 54 95 77
99 84 190 159 234 193 43 33 82 66 119 101 9 8 36 30 61 49 25 19 52 41 61 49
9 9 37 34 64 56 26 22 98 83 160 135 62 52 134 113 160 135 180 149 429 361
480 407 33 31 67 35 105 13 17 -10 57 -14 122 -15 92 0 133 9 188 41 8 5 24
13 35 18 42 18 121 109 154 177 32 66 34 74 34 179 -1 103 -3 115 -32 177 -48
100 -137 181 -251 227 -52 21 -207 24 -250 5z"/>
<path d="M2889 4743 c-126 -108 -314 -307 -364 -388 -11 -16 -38 -55 -60 -85
-23 -30 -45 -62 -48 -70 -4 -8 -16 -28 -27 -45 -10 -16 -31 -52 -45 -80 -14
-27 -30 -57 -35 -65 -9 -15 -61 -127 -85 -185 -7 -16 -20 -47 -29 -68 -9 -21
-16 -44 -16 -52 0 -8 -6 -29 -14 -47 -29 -67 -76 -252 -76 -297 0 -18 -5 -41
-11 -52 -6 -11 -17 -102 -25 -202 -12 -147 -12 -217 -4 -367 6 -102 18 -211
26 -243 8 -32 14 -70 14 -84 0 -15 7 -51 16 -82 9 -31 23 -81 31 -111 9 -30
22 -70 29 -88 8 -18 14 -41 14 -50 0 -10 7 -27 15 -38 8 -10 15 -27 15 -36 0
-9 6 -29 14 -45 8 -15 38 -75 66 -133 28 -58 60 -118 71 -135 10 -16 22 -37
26 -45 18 -39 157 -231 213 -294 34 -40 249 -255 286 -286 127 -111 313 -230
489 -314 55 -26 113 -54 128 -62 16 -8 36 -14 45 -14 9 0 26 -7 36 -15 11 -8
28 -15 38 -15 9 0 32 -6 50 -14 18 -8 58 -21 88 -29 30 -9 80 -23 111 -31 31
-9 67 -16 80 -16 13 0 58 -7 99 -16 98 -22 592 -25 685 -4 33 7 85 16 115 20
58 7 135 25 185 42 17 5 46 14 65 18 44 10 97 29 132 46 14 8 33 14 41 14 9 0
28 6 44 14 15 8 75 38 133 66 109 52 116 56 188 103 24 15 45 27 47 27 8 0
150 101 213 151 93 75 287 269 359 359 66 82 157 214 183 265 6 11 19 34 29
50 27 42 104 199 131 265 12 30 27 69 34 85 20 47 37 97 46 135 10 39 25 99
45 175 71 271 71 791 0 1060 -15 56 -32 122 -45 175 -14 61 -61 188 -102 280
-9 19 -19 43 -22 53 -9 28 -48 20 -93 -21 -22 -20 -57 -51 -77 -69 -40 -35
-44 -55 -20 -110 45 -105 62 -153 74 -203 5 -19 14 -55 20 -80 54 -210 70
-337 70 -550 0 -96 -5 -204 -10 -240 -6 -36 -15 -96 -20 -135 -5 -38 -14 -90
-20 -115 -19 -74 -41 -153 -52 -185 -5 -16 -14 -45 -18 -64 -5 -18 -13 -38
-19 -44 -6 -6 -11 -18 -11 -26 0 -32 -114 -258 -181 -359 -16 -24 -29 -45 -29
-48 0 -10 -120 -161 -192 -241 -40 -45 -100 -105 -133 -134 -33 -28 -62 -55
-65 -59 -14 -18 -234 -176 -270 -193 -8 -4 -37 -21 -65 -37 -46 -28 -104 -57
-195 -97 -19 -9 -47 -22 -62 -30 -14 -7 -34 -13 -45 -13 -10 0 -27 -7 -37 -15
-11 -8 -28 -15 -39 -15 -11 0 -40 -7 -66 -15 -103 -32 -155 -45 -180 -45 -15
0 -53 -7 -86 -15 -85 -22 -576 -22 -661 0 -32 8 -69 15 -83 15 -13 0 -49 7
-80 16 -31 8 -81 22 -111 31 -76 21 -113 35 -235 88 -58 25 -180 87 -210 106
-16 10 -39 23 -50 29 -63 32 -275 194 -361 277 -123 119 -297 334 -344 428 -6
11 -19 34 -29 50 -30 46 -93 176 -134 278 -27 64 -63 177 -73 227 -3 14 -11
48 -19 75 -68 250 -70 682 -3 965 6 25 14 61 19 80 19 82 32 127 45 152 8 14
14 35 14 45 0 11 7 28 15 39 8 10 15 25 15 33 0 12 114 247 143 296 92 153
228 320 367 449 47 44 87 86 89 95 2 8 -3 29 -11 46 -8 16 -23 48 -33 70 -31
70 -50 107 -56 110 -3 2 -30 -17 -60 -42z"/>
<path d="M3077 3973 c-72 -92 -157 -219 -178 -267 -5 -11 -13 -28 -18 -36 -25
-40 -84 -183 -100 -245 -5 -16 -13 -41 -18 -55 -17 -42 -36 -122 -43 -185 -4
-33 -13 -100 -20 -150 -18 -133 -9 -290 30 -485 6 -30 14 -73 19 -95 4 -22 13
-50 19 -62 7 -12 12 -32 12 -45 0 -13 7 -32 15 -42 8 -11 15 -28 15 -39 0 -10
6 -31 14 -45 8 -15 31 -61 51 -102 39 -82 37 -79 111 -195 84 -131 192 -254
300 -340 27 -22 56 -47 65 -55 14 -14 135 -95 204 -137 11 -7 54 -28 95 -48
41 -20 88 -43 103 -51 16 -7 35 -14 42 -14 7 0 26 -6 42 -14 15 -8 53 -21 83
-29 157 -44 143 -41 382 -67 107 -11 134 -10 390 20 42 4 82 11 88 15 5 3 31
10 58 15 44 7 61 12 157 47 262 95 500 260 710 493 60 66 140 176 165 225 6
11 19 34 30 50 11 17 22 37 26 45 3 8 10 22 15 30 5 8 12 22 15 30 7 18 33 75
49 110 6 14 20 52 30 85 10 33 24 77 31 98 8 20 14 47 14 58 0 11 7 41 15 67
32 103 34 522 4 642 -7 25 -15 65 -20 90 -8 45 -27 113 -50 180 -7 19 -13 41
-15 48 -5 18 -37 15 -55 -5 -9 -10 -46 -42 -82 -72 -73 -60 -78 -73 -53 -146
41 -120 49 -188 50 -395 0 -203 -9 -274 -46 -385 -5 -16 -14 -46 -18 -65 -9
-37 -34 -109 -49 -138 -5 -9 -26 -52 -47 -95 -42 -84 -43 -86 -91 -160 -87
-134 -276 -323 -410 -410 -133 -86 -318 -169 -418 -186 -23 -4 -46 -10 -53
-15 -19 -11 -249 -36 -342 -36 -87 0 -304 25 -323 37 -6 4 -29 10 -52 14 -78
13 -206 66 -346 142 -153 82 -316 228 -438 392 -37 50 -70 97 -74 105 -4 8
-16 29 -27 45 -11 17 -23 37 -26 45 -3 8 -19 42 -34 75 -49 108 -90 227 -90
263 0 13 -5 32 -11 43 -6 11 -17 84 -25 162 -21 204 2 457 52 575 8 18 14 39
14 47 0 8 7 31 16 52 9 21 24 54 32 73 22 50 47 100 71 140 11 19 24 41 27 48
4 7 31 49 60 93 l53 80 -15 35 c-8 20 -19 44 -23 53 -10 21 -35 78 -49 114 -7
15 -18 27 -25 27 -7 0 -48 -44 -90 -97z"/>
<path d="M4095 3545 c-49 -7 -113 -14 -142 -14 -41 -1 -55 -5 -67 -23 -11 -16
-12 -26 -5 -41 14 -26 111 -117 124 -117 6 0 16 -5 23 -12 40 -40 195 -68 381
-68 159 0 246 11 316 38 70 28 165 105 191 154 13 26 13 28 -12 45 -18 12 -60
19 -143 25 -64 4 -138 12 -166 17 -73 14 -395 11 -500 -4z"/>
<path d="M3545 3472 c-28 -20 -120 -240 -135 -322 -5 -25 -13 -58 -19 -73 -17
-45 -14 -345 4 -397 8 -23 15 -53 15 -66 0 -13 7 -40 16 -61 77 -181 84 -194
165 -303 138 -185 372 -336 576 -371 29 -5 64 -14 78 -19 34 -13 296 -13 330
0 14 5 49 14 78 19 63 11 156 44 207 72 8 5 26 14 39 19 48 21 157 100 216
157 109 105 193 231 259 388 47 110 81 322 71 438 -3 44 -11 91 -16 104 -8 23
-34 32 -41 14 -1 -5 -43 -40 -93 -78 l-90 -68 -2 -50 c-11 -233 -99 -435 -252
-577 -96 -89 -186 -140 -326 -185 -75 -24 -323 -29 -386 -9 -26 9 -55 16 -63
16 -19 0 -122 45 -199 87 -37 20 -123 98 -177 159 -53 60 -59 70 -99 151 -13
26 -30 60 -37 75 -8 14 -14 34 -14 43 0 9 -7 38 -16 64 -12 37 -14 80 -11 197
4 172 18 232 85 372 l26 53 -85 80 c-88 83 -88 83 -104 71z"/>
</g>
</svg>
